<svg width="41" height="41" viewBox="0 0 41 41" fill="none" xmlns="http://www.w3.org/2000/svg">
<path fill-rule="evenodd" clip-rule="evenodd" d="M20.5 41C31.8218 41 41 31.8218 41 20.5C41 9.17816 31.8218 0 20.5 0C9.17816 0 0 9.17816 0 20.5C0 31.8218 9.17816 41 20.5 41ZM23.8416 18.8116C22.8875 19.7014 21.7199 20.1523 20.3714 20.1523C19.0233 20.1523 17.8558 19.7012 16.9016 18.8118C15.9474 17.9222 15.4636 16.8335 15.4636 15.576C15.4636 14.3188 15.9474 13.2302 16.9014 12.3406C17.8555 11.451 19.0228 11 20.3714 11C21.7197 11 22.8872 11.451 23.8414 12.3404C24.7956 13.2303 25.2793 14.3189 25.2793 15.576C25.2793 16.8335 24.7956 17.922 23.8416 18.8116ZM28.7937 24.4094C28.8756 24.8359 28.9313 25.2397 28.9588 25.61C28.986 25.9718 28.9998 26.3494 29 26.7322C29 27.7245 28.6619 28.5275 27.995 29.1192C27.3363 29.7037 26.4653 30 25.4056 30H15.5944C14.5347 30 13.6634 29.7036 13.0049 29.1192C12.3381 28.5271 12 27.7242 12 26.7324C12 26.3513 12.0137 25.974 12.0407 25.6104C12.0682 25.2393 12.1239 24.8353 12.2058 24.4094C12.2885 23.9798 12.395 23.5737 12.5223 23.2025C12.6542 22.8185 12.8333 22.4397 13.0545 22.0766C13.2839 21.6999 13.554 21.3718 13.8566 21.1016C14.1736 20.8188 14.5615 20.5917 15.0095 20.4263C15.4562 20.2613 15.9511 20.1777 16.4809 20.1777C16.6889 20.1777 16.8903 20.2573 17.2783 20.4931C17.521 20.6405 17.8008 20.8087 18.11 20.9929C18.3766 21.1515 18.7382 21.3001 19.1844 21.4345C19.6206 21.5659 20.0629 21.6326 20.4995 21.6326C20.9362 21.6326 21.3787 21.5659 21.8144 21.4345C22.261 21.2999 22.6226 21.1514 22.8896 20.9928C23.2017 20.8068 23.4814 20.6387 23.7205 20.4933C24.109 20.2574 24.3101 20.1778 24.5181 20.1778C25.0478 20.1778 25.5429 20.2613 25.9897 20.4261C26.438 20.5918 26.8258 20.819 27.1424 21.1015C27.4453 21.3716 27.7151 21.6997 27.9449 22.0766C28.1663 22.4397 28.3454 22.8187 28.477 23.2024C28.6045 23.5736 28.711 23.9798 28.7937 24.4094Z" fill="white" fill-opacity="0.2"/>
</svg>
