<svg width="15" height="15" viewBox="0 0 15 15" fill="none" xmlns="http://www.w3.org/2000/svg">
<path d="M8.96329 7.50129L14.6975 1.76607C15.1008 1.3627 15.1008 0.705913 14.6975 0.302534C14.2942 -0.100845 13.6375 -0.100845 13.2342 0.302534L7.5 6.03775L1.76577 0.302534C1.36246 -0.100845 0.705791 -0.100845 0.302482 0.302534C-0.100827 0.705913 -0.100827 1.3627 0.302482 1.76607L6.03671 7.50129L0.307652 13.2313C-0.0956567 13.6347 -0.0956567 14.2915 0.307652 14.6949C0.509307 14.8966 0.773009 15 1.03671 15C1.30041 15 1.56412 14.8966 1.76577 14.6949L7.5 8.95966L13.2342 14.6949C13.4359 14.8966 13.6996 15 13.9633 15C14.227 15 14.4907 14.8966 14.6923 14.6949C15.0957 14.2915 15.0957 13.6347 14.6923 13.2313L8.96329 7.50129Z" fill="white"/>
</svg>
