<svg width="55" height="55" viewBox="0 0 55 55" fill="none" xmlns="http://www.w3.org/2000/svg">
<rect width="55" height="55" rx="10" fill="#D0FF6B"/>
<g clip-path="url(#clip0_52_415)">
<mask id="mask0_52_415" style="mask-type:luminance" maskUnits="userSpaceOnUse" x="17" y="17" width="21" height="21">
<path d="M17 17H38V38H17V17Z" fill="white"/>
</mask>
<g mask="url(#mask0_52_415)">
<path d="M31.3508 26.6378L27.6541 30.3344C27.4139 30.5747 27.0989 30.6948 26.7841 30.6948C26.4692 30.6948 26.1542 30.5747 25.914 30.3344L24.0657 28.4861C23.5851 28.0056 23.5851 27.2265 24.0657 26.746C24.5462 26.2654 25.3253 26.2654 25.8058 26.746L26.7841 27.7242L29.6106 24.8977C30.0912 24.4171 30.8702 24.4171 31.3508 24.8977C31.8313 25.3782 31.8313 26.1573 31.3508 26.6378ZM34.9246 20.0754C32.9415 18.0922 30.3047 17 27.5 17C24.6954 17 22.0586 18.0922 20.0754 20.0754C18.0922 22.0586 17 24.6954 17 27.5C17 30.3046 18.0922 32.9414 20.0754 34.9246C22.0586 36.9078 24.6954 38 27.5 38C30.3047 38 32.9415 36.9078 34.9246 34.9246C36.9078 32.9414 38 30.3046 38 27.5C38 24.6954 36.9078 22.0586 34.9246 20.0754Z" fill="black"/>
</g>
</g>
<defs>
<clipPath id="clip0_52_415">
<rect width="21" height="21" fill="white" transform="translate(17 17)"/>
</clipPath>
</defs>
</svg>
