<svg width="134" height="31" viewBox="0 0 134 31" fill="none" xmlns="http://www.w3.org/2000/svg">
<path d="M8.85359 23.0163H19.0627L17.7919 30.3629H0L5.21048 0.636868H12.7932L8.85359 23.0163Z" fill="#0090F0"/>
<path d="M8.85359 23.0163H19.0627L17.7919 30.3629H0L5.21048 0.636868H12.7932L8.85359 23.0163Z" fill="url(#paint0_linear_52_327)"/>
<path d="M28.9047 31C25.9111 31 23.2988 30.2498 21.0678 28.7493C18.8367 27.2489 17.2552 25.2813 16.3233 22.8466C15.3913 20.4119 15.1654 17.8073 15.6455 15.0329C16.3798 10.7863 18.3708 7.21918 21.6185 4.33151C24.8662 1.44384 28.8058 0 33.4374 0C37.9277 0 41.4155 1.58539 43.9007 4.75616C46.4142 7.89863 47.3179 11.6073 46.6119 15.8822C45.8776 20.1854 43.9007 23.7808 40.6812 26.6685C37.49 29.5562 33.5645 31 28.9047 31ZM24.3296 21.3178C25.544 22.8183 27.2949 23.5685 29.5825 23.5685C31.87 23.5685 33.9175 22.8183 35.7249 21.3178C37.5606 19.789 38.6761 17.8498 39.0715 15.5C39.4951 13.1502 39.0856 11.2251 37.843 9.72466C36.6004 8.19589 34.8353 7.43151 32.5478 7.43151C30.2603 7.43151 28.2269 8.19589 26.4477 9.72466C24.6968 11.2251 23.6095 13.1502 23.1859 15.5C22.7622 17.8781 23.1435 19.8174 24.3296 21.3178Z" fill="white"/>
<path d="M28.9047 31C25.9111 31 23.2988 30.2498 21.0678 28.7493C18.8367 27.2489 17.2552 25.2813 16.3233 22.8466C15.3913 20.4119 15.1654 17.8073 15.6455 15.0329C16.3798 10.7863 18.3708 7.21918 21.6185 4.33151C24.8662 1.44384 28.8058 0 33.4374 0C37.9277 0 41.4155 1.58539 43.9007 4.75616C46.4142 7.89863 47.3179 11.6073 46.6119 15.8822C45.8776 20.1854 43.9007 23.7808 40.6812 26.6685C37.49 29.5562 33.5645 31 28.9047 31ZM24.3296 21.3178C25.544 22.8183 27.2949 23.5685 29.5825 23.5685C31.87 23.5685 33.9175 22.8183 35.7249 21.3178C37.5606 19.789 38.6761 17.8498 39.0715 15.5C39.4951 13.1502 39.0856 11.2251 37.843 9.72466C36.6004 8.19589 34.8353 7.43151 32.5478 7.43151C30.2603 7.43151 28.2269 8.19589 26.4477 9.72466C24.6968 11.2251 23.6095 13.1502 23.1859 15.5C22.7622 17.8781 23.1435 19.8174 24.3296 21.3178Z" fill="url(#paint1_linear_52_327)"/>
<path d="M53.1721 30.9999C49.5573 30.9999 46.7614 30.0232 44.7845 28.0697C42.8359 26.1163 42.1299 23.625 42.6665 20.5958L46.1825 0.636868H53.7652L50.3763 19.8739C49.9244 22.3652 51.0964 23.6108 53.8923 23.6108C56.6599 23.6108 58.2697 22.3652 58.7215 19.8739L62.0681 0.636868H69.6508L66.1348 20.5958C65.5417 23.9364 64.0732 26.5127 61.7292 28.3245C59.3852 30.1081 56.5328 30.9999 53.1721 30.9999Z" fill="white"/>
<path d="M53.1721 30.9999C49.5573 30.9999 46.7614 30.0232 44.7845 28.0697C42.8359 26.1163 42.1299 23.625 42.6665 20.5958L46.1825 0.636868H53.7652L50.3763 19.8739C49.9244 22.3652 51.0964 23.6108 53.8923 23.6108C56.6599 23.6108 58.2697 22.3652 58.7215 19.8739L62.0681 0.636868H69.6508L66.1348 20.5958C65.5417 23.9364 64.0732 26.5127 61.7292 28.3245C59.3852 30.1081 56.5328 30.9999 53.1721 30.9999Z" fill="url(#paint2_linear_52_327)"/>
<path d="M63.5425 30.3629L68.753 0.636868H74.6412L82.3511 16.1793L85.1046 0.636868H92.6449L87.4345 30.3629H81.5885L73.8787 14.8204L71.1252 30.3629H63.5425Z" fill="white"/>
<path d="M63.5425 30.3629L68.753 0.636868H74.6412L82.3511 16.1793L85.1046 0.636868H92.6449L87.4345 30.3629H81.5885L73.8787 14.8204L71.1252 30.3629H63.5425Z" fill="url(#paint3_linear_52_327)"/>
<path d="M117.172 13.3342L116.664 16.3493C115.93 20.8507 114.023 24.4178 110.945 27.0507C107.867 29.6836 104.083 31 99.5922 31C94.9889 31 91.4305 29.4712 88.9171 26.4137C86.4036 23.3279 85.514 19.5484 86.2483 15.0753C86.9825 10.6872 88.9877 7.07762 92.2636 4.24657C95.5396 1.41552 99.3804 0 103.786 0C106.695 0 109.208 0.622831 111.326 1.86849C113.444 3.11415 115.068 4.82694 116.198 7.00685L109.251 10.7438C108.008 8.53562 105.932 7.43151 103.024 7.43151C100.708 7.43151 98.6885 8.18173 96.9658 9.68219C95.2713 11.1543 94.2123 13.0936 93.7887 15.5C93.365 17.8781 93.7463 19.8598 94.9324 21.4452C96.1185 23.0023 97.8977 23.7808 100.27 23.7808C103.913 23.7808 106.469 22.4785 107.937 19.874H101.075L102.219 13.3342H117.172Z" fill="white"/>
<path d="M117.172 13.3342L116.664 16.3493C115.93 20.8507 114.023 24.4178 110.945 27.0507C107.867 29.6836 104.083 31 99.5922 31C94.9889 31 91.4305 29.4712 88.9171 26.4137C86.4036 23.3279 85.514 19.5484 86.2483 15.0753C86.9825 10.6872 88.9877 7.07762 92.2636 4.24657C95.5396 1.41552 99.3804 0 103.786 0C106.695 0 109.208 0.622831 111.326 1.86849C113.444 3.11415 115.068 4.82694 116.198 7.00685L109.251 10.7438C108.008 8.53562 105.932 7.43151 103.024 7.43151C100.708 7.43151 98.6885 8.18173 96.9658 9.68219C95.2713 11.1543 94.2123 13.0936 93.7887 15.5C93.365 17.8781 93.7463 19.8598 94.9324 21.4452C96.1185 23.0023 97.8977 23.7808 100.27 23.7808C103.913 23.7808 106.469 22.4785 107.937 19.874H101.075L102.219 13.3342H117.172Z" fill="url(#paint4_linear_52_327)"/>
<path d="M132.729 7.72865H121.503L120.741 11.8903H130.992L129.721 18.8547H119.555L118.792 23.2286H130.23L129.001 30.3629H109.938L115.149 0.636868H134L132.729 7.72865Z" fill="white"/>
<path d="M132.729 7.72865H121.503L120.741 11.8903H130.992L129.721 18.8547H119.555L118.792 23.2286H130.23L129.001 30.3629H109.938L115.149 0.636868H134L132.729 7.72865Z" fill="url(#paint5_linear_52_327)"/>
<defs>
<linearGradient id="paint0_linear_52_327" x1="7.0986" y1="19.7465" x2="23.524" y2="13.6324" gradientUnits="userSpaceOnUse">
<stop stop-opacity="0"/>
<stop offset="1"/>
</linearGradient>
<linearGradient id="paint1_linear_52_327" x1="25.9019" y1="19.7466" x2="51.6814" y2="20.3669" gradientUnits="userSpaceOnUse">
<stop stop-opacity="0"/>
<stop offset="1"/>
</linearGradient>
<linearGradient id="paint2_linear_52_327" x1="50.9734" y1="19.7465" x2="72.2075" y2="20.1672" gradientUnits="userSpaceOnUse">
<stop stop-opacity="0"/>
<stop offset="1"/>
</linearGradient>
<linearGradient id="paint3_linear_52_327" x1="73.5228" y1="19.7465" x2="95.5147" y2="20.1978" gradientUnits="userSpaceOnUse">
<stop stop-opacity="0"/>
<stop offset="1"/>
</linearGradient>
<linearGradient id="paint4_linear_52_327" x1="96.1445" y1="19.7466" x2="121.166" y2="20.3309" gradientUnits="userSpaceOnUse">
<stop stop-opacity="0"/>
<stop offset="1"/>
</linearGradient>
<linearGradient id="paint5_linear_52_327" x1="117.757" y1="19.7465" x2="135.202" y2="20.0304" gradientUnits="userSpaceOnUse">
<stop stop-opacity="0"/>
<stop offset="1" stop-opacity="0.7"/>
</linearGradient>
</defs>
</svg>
