<svg width="25" height="25" viewBox="0 0 25 25" fill="none" xmlns="http://www.w3.org/2000/svg">
<path d="M13.7699 25H11.2284C11.0217 25 10.8447 24.8525 10.8108 24.6517L10.4084 22.2783C9.70271 22.1325 9.01228 21.9117 8.34896 21.6183L6.60383 23.3075C6.45558 23.4508 6.2243 23.4675 6.05742 23.3475L4.00223 21.8783C3.83534 21.7583 3.77943 21.5375 3.87261 21.355L4.96544 19.2025C4.4724 18.6683 4.04289 18.0908 3.6837 17.4792L1.27271 17.8358C1.06346 17.8683 0.870309 17.7475 0.806773 17.5525L0.0206164 15.1742C-0.04292 14.9808 0.0443366 14.77 0.228168 14.6758L2.39942 13.565C2.35452 13.1758 2.33334 12.8308 2.33334 12.5C2.33334 12.1692 2.35452 11.825 2.40026 11.435L0.229016 10.325C0.0451838 10.2317 -0.0420728 10.0208 0.0214635 9.82667L0.806773 7.44833C0.870309 7.255 1.06177 7.13333 1.27271 7.165L3.68539 7.52083C3.81924 7.2925 3.9641 7.0675 4.11659 6.85083C4.2479 6.66 4.51136 6.61417 4.70451 6.74583C4.89682 6.87667 4.94511 7.13583 4.8121 7.325C4.62065 7.59667 4.44359 7.8825 4.28433 8.17417C4.19961 8.32833 4.02849 8.41583 3.84805 8.38833L1.50144 8.04167L0.938081 9.74833L3.05257 10.8292C3.21183 10.91 3.30079 11.0808 3.27707 11.255C3.21099 11.7317 3.18049 12.1275 3.18049 12.5C3.18049 12.8725 3.21099 13.2683 3.27622 13.745C3.29994 13.9192 3.21099 14.09 3.05172 14.1708L0.937234 15.2525L1.50144 16.9592L3.84805 16.6125C4.02256 16.5842 4.19961 16.6717 4.28433 16.8275C4.68079 17.5525 5.184 18.2308 5.78124 18.8417C5.90493 18.9683 5.93543 19.1592 5.85495 19.3167L4.79008 21.4117L6.26581 22.4667L7.96435 20.8217C8.09227 20.6983 8.28458 20.6683 8.44638 20.7433C9.21221 21.1092 10.0212 21.3683 10.8523 21.5142C11.0285 21.545 11.1657 21.6817 11.1954 21.8558L11.5876 24.1667H13.4107L13.8021 21.8567C13.8317 21.6825 13.969 21.5458 14.1452 21.515C14.9745 21.3692 15.7853 21.1108 16.5528 20.7442C16.712 20.6683 16.9069 20.6983 17.034 20.8225L18.7325 22.4667L20.2074 21.4117L19.1442 19.3167C19.0637 19.1592 19.0934 18.9692 19.2179 18.8417C19.8135 18.2317 20.3175 17.5533 20.714 16.8275C20.7987 16.6725 20.9673 16.5858 21.1503 16.6125L23.4977 16.9583L24.0611 15.2517L21.9466 14.1708C21.7873 14.09 21.6984 13.9192 21.7221 13.745C21.7873 13.2683 21.8178 12.8725 21.8178 12.5C21.8178 12.1275 21.7873 11.7317 21.7221 11.255C21.6984 11.0808 21.7873 10.91 21.9466 10.8292L24.0611 9.7475L23.4969 8.04083L21.1503 8.3875C20.9715 8.41167 20.7987 8.3275 20.714 8.1725C20.3175 7.4475 19.8143 6.76917 19.2171 6.15833C19.0934 6.03167 19.0629 5.84083 19.1434 5.68333L20.2082 3.58833L18.7316 2.53333L17.0331 4.17833C16.906 4.30167 16.7137 4.33333 16.5511 4.25667C15.7853 3.89083 14.9762 3.63167 14.1452 3.48583C13.969 3.455 13.8317 3.31833 13.8021 3.14417L13.4107 0.833333H11.5876L11.1962 3.14333C11.1666 3.3175 11.0293 3.45417 10.8531 3.485C10.0238 3.63083 9.21305 3.88917 8.44553 4.25583C8.28627 4.33167 8.09227 4.30167 7.96435 4.1775L6.26581 2.53417L4.79008 3.58917L5.85325 5.68333C5.95745 5.88917 5.87274 6.14 5.66349 6.2425C5.45424 6.34583 5.20095 6.26167 5.0959 6.05667L3.87177 3.64583C3.77943 3.46333 3.83449 3.2425 4.00223 3.1225L6.05826 1.6525C6.2243 1.53167 6.45642 1.55 6.60467 1.6925L8.34981 3.38083C9.01313 3.0875 9.7044 2.86667 10.4101 2.72083L10.8125 0.3475C10.8447 0.1475 11.0217 0 11.2284 0H13.7699C13.9766 0 14.1536 0.1475 14.1875 0.348333L14.5899 2.72167C15.2956 2.8675 15.986 3.08833 16.6493 3.38167L18.3945 1.6925C18.5427 1.55 18.774 1.5325 18.9409 1.6525L20.9978 3.1225C21.1647 3.2425 21.2206 3.46333 21.1274 3.64583L20.0346 5.79833C20.5276 6.3325 20.9571 6.91 21.3163 7.52167L23.7273 7.165C23.9365 7.13333 24.1297 7.25417 24.1932 7.44833L24.9794 9.82667C25.0429 10.02 24.9557 10.2308 24.7718 10.325L22.6006 11.4358C22.6438 11.8242 22.665 12.1692 22.665 12.5C22.665 12.8308 22.6438 13.175 22.598 13.565L24.7693 14.675C24.9531 14.7683 25.0404 14.9792 24.9768 15.1733L24.1915 17.5517C24.1288 17.7458 23.9348 17.8692 23.7256 17.835L21.3138 17.4792C20.9537 18.0908 20.5251 18.6692 20.0329 19.2025L21.1248 21.3542C21.2172 21.5367 21.1621 21.7575 20.9952 21.8775L18.9392 23.3475C18.7732 23.4675 18.541 23.45 18.3928 23.3075L16.6477 21.6192C15.9843 21.9125 15.2931 22.1333 14.5874 22.2792L14.185 24.6525C14.1536 24.8525 13.9766 25 13.7699 25ZM12.4992 15.8333C10.6303 15.8333 9.11055 14.3383 9.11055 12.5C9.11055 10.6617 10.6303 9.16667 12.4992 9.16667C14.368 9.16667 15.8878 10.6617 15.8878 12.5C15.8878 14.3383 14.368 15.8333 12.4992 15.8333ZM12.4992 10C11.098 10 9.9577 11.1217 9.9577 12.5C9.9577 13.8783 11.098 15 12.4992 15C13.9003 15 15.0406 13.8783 15.0406 12.5C15.0406 11.1217 13.9003 10 12.4992 10Z" fill="white"/>
<path d="M12.4993 19.1666C8.76247 19.1666 5.72205 16.1758 5.72205 12.5C5.72205 8.82415 8.76247 5.83331 12.4993 5.83331C16.236 5.83331 19.2765 8.82415 19.2765 12.5C19.2765 13.9841 18.791 15.39 17.8727 16.565C17.7304 16.7475 17.4636 16.7808 17.2789 16.6416C17.0934 16.5016 17.0586 16.24 17.2009 16.0575C18.0049 15.0283 18.4293 13.7991 18.4293 12.5C18.4293 9.28415 15.7684 6.66665 12.4993 6.66665C9.2301 6.66665 6.5692 9.28415 6.5692 12.5C6.5692 15.7158 9.2301 18.3333 12.4993 18.3333C13.2007 18.3333 13.8903 18.2125 14.5494 17.975C14.7688 17.8975 15.0128 18.0066 15.0932 18.2233C15.1737 18.4391 15.061 18.6783 14.8408 18.7583C14.0885 19.0291 13.2998 19.1666 12.4993 19.1666Z" fill="white"/>
<path d="M16.3114 17.9167C16.5453 17.9167 16.735 17.7301 16.735 17.5C16.735 17.2699 16.5453 17.0833 16.3114 17.0833C16.0775 17.0833 15.8878 17.2699 15.8878 17.5C15.8878 17.7301 16.0775 17.9167 16.3114 17.9167Z" fill="white"/>
</svg>
